# xmcd
#
# Track frame offsets:
#	150
#	16459
#	35581
#	49771
#	71671
#	92956
#	108335
#	124634
#	144750
#
# Disc length: 2227 seconds
#
# Revision: 0
# Processed by: cddbd v1.5.2PL0 Copyright (c) Steve Scherf et al.
# Submitted via: audiograbber 1.83.01
#
DISCID=7608b109
DTITLE=Golden Earring - Complete Studio Recordings [CD 15) - Prisoner Of The Ni
DTITLE=ght [remastered 2017]
DYEAR=1980
DGENRE=Rock
TTITLE0=Long Blond Animal
TTITLE1=No For An Answer
TTITLE2=My Town
TTITLE3=Prisoner Of The Night
TTITLE4=I Don't Wanna Be Nobody Else
TTITLE5=Cut 'Em Down To Size
TTITLE6=Will and Mercy
TTITLE7=Come In Outerspace
TTITLE8=Going Crazy Again
EXTD=
EXTT0=
EXTT1=
EXTT2=
EXTT3=
EXTT4=
EXTT5=
EXTT6=
EXTT7=
EXTT8=
PLAYORDER=
